<mxfile host="Electron" modified="2025-03-25T16:05:26.925Z" agent="Mozilla/5.0 (Windows NT 10.0; Win64; x64) AppleWebKit/537.36 (KHTML, like Gecko) draw.io/24.5.1 Chrome/124.0.6367.207 Electron/30.0.6 Safari/537.36" etag="QuYlEnCB5OB5Z3eJwR5l" version="24.5.1" type="device">
  <diagram name="Page-1" id="hRlv3N45pgw5PbQeTlk9">
    <mxGraphModel dx="1867" dy="873" grid="1" gridSize="10" guides="1" tooltips="1" connect="1" arrows="1" fold="1" page="1" pageScale="1" pageWidth="850" pageHeight="1100" math="0" shadow="0">
      <root>
        <mxCell id="0" />
        <mxCell id="1" parent="0" />
        <mxCell id="YgAfKky1O50WUf-3nNNP-1" value="Actor" style="shape=umlActor;verticalLabelPosition=bottom;verticalAlign=top;html=1;outlineConnect=0;" vertex="1" parent="1">
          <mxGeometry x="20" y="160" width="30" height="60" as="geometry" />
        </mxCell>
        <mxCell id="YgAfKky1O50WUf-3nNNP-2" value="FollowRepository" style="rounded=0;whiteSpace=wrap;html=1;" vertex="1" parent="1">
          <mxGeometry x="190" y="30" width="120" height="60" as="geometry" />
        </mxCell>
        <mxCell id="YgAfKky1O50WUf-3nNNP-3" value="" style="endArrow=none;dashed=1;html=1;dashPattern=1 3;strokeWidth=2;rounded=0;entryX=0.5;entryY=1;entryDx=0;entryDy=0;" edge="1" parent="1" target="YgAfKky1O50WUf-3nNNP-2">
          <mxGeometry width="50" height="50" relative="1" as="geometry">
            <mxPoint x="250" y="910" as="sourcePoint" />
            <mxPoint x="240" y="170" as="targetPoint" />
          </mxGeometry>
        </mxCell>
        <mxCell id="YgAfKky1O50WUf-3nNNP-6" value="" style="endArrow=classic;html=1;rounded=0;" edge="1" parent="1">
          <mxGeometry width="50" height="50" relative="1" as="geometry">
            <mxPoint x="60" y="180" as="sourcePoint" />
            <mxPoint x="250" y="180" as="targetPoint" />
          </mxGeometry>
        </mxCell>
        <mxCell id="YgAfKky1O50WUf-3nNNP-7" value="addFollower(followerId, followeeId)" style="text;html=1;align=center;verticalAlign=middle;resizable=0;points=[];autosize=1;strokeColor=none;fillColor=none;" vertex="1" parent="1">
          <mxGeometry x="45" y="148" width="210" height="30" as="geometry" />
        </mxCell>
        <mxCell id="YgAfKky1O50WUf-3nNNP-8" value="PostgresBase" style="rounded=0;whiteSpace=wrap;html=1;" vertex="1" parent="1">
          <mxGeometry x="470" y="30" width="120" height="60" as="geometry" />
        </mxCell>
        <mxCell id="YgAfKky1O50WUf-3nNNP-9" value="" style="endArrow=none;dashed=1;html=1;dashPattern=1 3;strokeWidth=2;rounded=0;entryX=0.5;entryY=1;entryDx=0;entryDy=0;" edge="1" parent="1" target="YgAfKky1O50WUf-3nNNP-8">
          <mxGeometry width="50" height="50" relative="1" as="geometry">
            <mxPoint x="530" y="890" as="sourcePoint" />
            <mxPoint x="520" y="120" as="targetPoint" />
          </mxGeometry>
        </mxCell>
        <mxCell id="YgAfKky1O50WUf-3nNNP-10" value="" style="endArrow=classic;html=1;rounded=0;exitX=0.981;exitY=0.933;exitDx=0;exitDy=0;exitPerimeter=0;" edge="1" parent="1" source="YgAfKky1O50WUf-3nNNP-7">
          <mxGeometry width="50" height="50" relative="1" as="geometry">
            <mxPoint x="320" y="180" as="sourcePoint" />
            <mxPoint x="530" y="170" as="targetPoint" />
            <Array as="points">
              <mxPoint x="530" y="176" />
            </Array>
          </mxGeometry>
        </mxCell>
        <mxCell id="YgAfKky1O50WUf-3nNNP-11" value="getRepository(Follows)" style="text;html=1;align=center;verticalAlign=middle;resizable=0;points=[];autosize=1;strokeColor=none;fillColor=none;" vertex="1" parent="1">
          <mxGeometry x="315" y="138" width="150" height="30" as="geometry" />
        </mxCell>
        <mxCell id="YgAfKky1O50WUf-3nNNP-12" value="DatabaseFactory" style="rounded=0;whiteSpace=wrap;html=1;" vertex="1" parent="1">
          <mxGeometry x="750" y="30" width="120" height="60" as="geometry" />
        </mxCell>
        <mxCell id="YgAfKky1O50WUf-3nNNP-13" value="" style="endArrow=none;dashed=1;html=1;dashPattern=1 3;strokeWidth=2;rounded=0;" edge="1" parent="1">
          <mxGeometry width="50" height="50" relative="1" as="geometry">
            <mxPoint x="810" y="860" as="sourcePoint" />
            <mxPoint x="810" y="90" as="targetPoint" />
          </mxGeometry>
        </mxCell>
        <mxCell id="YgAfKky1O50WUf-3nNNP-14" value="" style="endArrow=classic;html=1;rounded=0;" edge="1" parent="1">
          <mxGeometry width="50" height="50" relative="1" as="geometry">
            <mxPoint x="530" y="180" as="sourcePoint" />
            <mxPoint x="810" y="190" as="targetPoint" />
          </mxGeometry>
        </mxCell>
        <mxCell id="YgAfKky1O50WUf-3nNNP-15" value="getConnection(dbType)" style="text;html=1;align=center;verticalAlign=middle;resizable=0;points=[];autosize=1;strokeColor=none;fillColor=none;" vertex="1" parent="1">
          <mxGeometry x="585" y="148" width="150" height="30" as="geometry" />
        </mxCell>
        <mxCell id="YgAfKky1O50WUf-3nNNP-16" value="PostgresConnection" style="rounded=0;whiteSpace=wrap;html=1;" vertex="1" parent="1">
          <mxGeometry x="1010" y="30" width="120" height="60" as="geometry" />
        </mxCell>
        <mxCell id="YgAfKky1O50WUf-3nNNP-17" value="" style="endArrow=none;dashed=1;html=1;dashPattern=1 3;strokeWidth=2;rounded=0;entryX=0.5;entryY=1;entryDx=0;entryDy=0;" edge="1" parent="1" target="YgAfKky1O50WUf-3nNNP-16">
          <mxGeometry width="50" height="50" relative="1" as="geometry">
            <mxPoint x="1070" y="870" as="sourcePoint" />
            <mxPoint x="1070" y="120" as="targetPoint" />
          </mxGeometry>
        </mxCell>
        <mxCell id="YgAfKky1O50WUf-3nNNP-18" value="" style="endArrow=classic;html=1;rounded=0;" edge="1" parent="1">
          <mxGeometry width="50" height="50" relative="1" as="geometry">
            <mxPoint x="810" y="200" as="sourcePoint" />
            <mxPoint x="1070" y="210" as="targetPoint" />
          </mxGeometry>
        </mxCell>
        <mxCell id="YgAfKky1O50WUf-3nNNP-19" value="instance" style="text;html=1;align=center;verticalAlign=middle;resizable=0;points=[];autosize=1;strokeColor=none;fillColor=none;" vertex="1" parent="1">
          <mxGeometry x="915" y="168" width="70" height="30" as="geometry" />
        </mxCell>
        <mxCell id="YgAfKky1O50WUf-3nNNP-20" value="DatabaseConnection" style="rounded=0;whiteSpace=wrap;html=1;" vertex="1" parent="1">
          <mxGeometry x="1260" y="30" width="120" height="60" as="geometry" />
        </mxCell>
        <mxCell id="YgAfKky1O50WUf-3nNNP-21" value="" style="endArrow=none;dashed=1;html=1;dashPattern=1 3;strokeWidth=2;rounded=0;" edge="1" parent="1">
          <mxGeometry width="50" height="50" relative="1" as="geometry">
            <mxPoint x="1320" y="840" as="sourcePoint" />
            <mxPoint x="1320" y="90" as="targetPoint" />
          </mxGeometry>
        </mxCell>
        <mxCell id="YgAfKky1O50WUf-3nNNP-22" value="" style="endArrow=classic;html=1;rounded=0;" edge="1" parent="1">
          <mxGeometry width="50" height="50" relative="1" as="geometry">
            <mxPoint x="1070" y="220" as="sourcePoint" />
            <mxPoint x="1320" y="230" as="targetPoint" />
          </mxGeometry>
        </mxCell>
        <mxCell id="YgAfKky1O50WUf-3nNNP-23" value="initialize()" style="text;html=1;align=center;verticalAlign=middle;resizable=0;points=[];autosize=1;strokeColor=none;fillColor=none;" vertex="1" parent="1">
          <mxGeometry x="1155" y="188" width="70" height="30" as="geometry" />
        </mxCell>
        <mxCell id="YgAfKky1O50WUf-3nNNP-24" value="DataSource" style="rounded=0;whiteSpace=wrap;html=1;" vertex="1" parent="1">
          <mxGeometry x="1528" y="30" width="120" height="60" as="geometry" />
        </mxCell>
        <mxCell id="YgAfKky1O50WUf-3nNNP-25" value="" style="endArrow=none;dashed=1;html=1;dashPattern=1 3;strokeWidth=2;rounded=0;" edge="1" parent="1">
          <mxGeometry width="50" height="50" relative="1" as="geometry">
            <mxPoint x="1590" y="830" as="sourcePoint" />
            <mxPoint x="1590" y="90" as="targetPoint" />
          </mxGeometry>
        </mxCell>
        <mxCell id="YgAfKky1O50WUf-3nNNP-26" value="" style="endArrow=classic;html=1;rounded=0;" edge="1" parent="1">
          <mxGeometry width="50" height="50" relative="1" as="geometry">
            <mxPoint x="1320" y="230" as="sourcePoint" />
            <mxPoint x="1590" y="250" as="targetPoint" />
          </mxGeometry>
        </mxCell>
        <mxCell id="YgAfKky1O50WUf-3nNNP-27" value="initialize()" style="text;html=1;align=center;verticalAlign=middle;resizable=0;points=[];autosize=1;strokeColor=none;fillColor=none;" vertex="1" parent="1">
          <mxGeometry x="1405" y="198" width="70" height="30" as="geometry" />
        </mxCell>
        <mxCell id="YgAfKky1O50WUf-3nNNP-28" value="poolManager" style="endArrow=open;startArrow=none;endFill=0;startFill=0;endSize=8;html=1;verticalAlign=bottom;dashed=1;labelBackgroundColor=none;rounded=0;" edge="1" parent="1">
          <mxGeometry width="160" relative="1" as="geometry">
            <mxPoint x="1590" y="310" as="sourcePoint" />
            <mxPoint x="1320" y="320" as="targetPoint" />
          </mxGeometry>
        </mxCell>
        <mxCell id="YgAfKky1O50WUf-3nNNP-29" value="connection" style="endArrow=open;startArrow=none;endFill=0;startFill=0;endSize=8;html=1;verticalAlign=bottom;dashed=1;labelBackgroundColor=none;rounded=0;" edge="1" parent="1">
          <mxGeometry width="160" relative="1" as="geometry">
            <mxPoint x="1320" y="330" as="sourcePoint" />
            <mxPoint x="1070" y="350" as="targetPoint" />
          </mxGeometry>
        </mxCell>
        <mxCell id="YgAfKky1O50WUf-3nNNP-30" value="connection" style="endArrow=open;startArrow=none;endFill=0;startFill=0;endSize=8;html=1;verticalAlign=bottom;dashed=1;labelBackgroundColor=none;rounded=0;" edge="1" parent="1">
          <mxGeometry width="160" relative="1" as="geometry">
            <mxPoint x="1070" y="350" as="sourcePoint" />
            <mxPoint x="810" y="380" as="targetPoint" />
          </mxGeometry>
        </mxCell>
        <mxCell id="YgAfKky1O50WUf-3nNNP-31" value="repository" style="endArrow=open;startArrow=none;endFill=0;startFill=0;endSize=8;html=1;verticalAlign=bottom;dashed=1;labelBackgroundColor=none;rounded=0;" edge="1" parent="1">
          <mxGeometry width="160" relative="1" as="geometry">
            <mxPoint x="810" y="390" as="sourcePoint" />
            <mxPoint x="530" y="410" as="targetPoint" />
          </mxGeometry>
        </mxCell>
        <mxCell id="YgAfKky1O50WUf-3nNNP-33" value="" style="endArrow=classic;html=1;rounded=0;" edge="1" parent="1">
          <mxGeometry width="50" height="50" relative="1" as="geometry">
            <mxPoint x="530" y="440" as="sourcePoint" />
            <mxPoint x="530" y="490" as="targetPoint" />
            <Array as="points">
              <mxPoint x="570" y="440" />
              <mxPoint x="570" y="490" />
            </Array>
          </mxGeometry>
        </mxCell>
        <mxCell id="YgAfKky1O50WUf-3nNNP-34" value="repository.create(followerId, followeeId)" style="text;html=1;align=center;verticalAlign=middle;resizable=0;points=[];autosize=1;strokeColor=none;fillColor=none;" vertex="1" parent="1">
          <mxGeometry x="560" y="438" width="230" height="30" as="geometry" />
        </mxCell>
        <mxCell id="YgAfKky1O50WUf-3nNNP-35" value="" style="endArrow=classic;html=1;rounded=0;" edge="1" parent="1">
          <mxGeometry width="50" height="50" relative="1" as="geometry">
            <mxPoint x="530" y="510" as="sourcePoint" />
            <mxPoint x="530" y="560" as="targetPoint" />
            <Array as="points">
              <mxPoint x="570" y="510" />
              <mxPoint x="570" y="560" />
            </Array>
          </mxGeometry>
        </mxCell>
        <mxCell id="YgAfKky1O50WUf-3nNNP-37" value="repository.save(newFollower)" style="text;html=1;align=center;verticalAlign=middle;resizable=0;points=[];autosize=1;strokeColor=none;fillColor=none;" vertex="1" parent="1">
          <mxGeometry x="560" y="498" width="180" height="30" as="geometry" />
        </mxCell>
        <mxCell id="YgAfKky1O50WUf-3nNNP-38" value="alt" style="shape=umlFrame;whiteSpace=wrap;html=1;pointerEvents=0;recursiveResize=0;container=1;collapsible=0;width=160;" vertex="1" parent="1">
          <mxGeometry x="210" y="580" width="340" height="180" as="geometry" />
        </mxCell>
        <mxCell id="YgAfKky1O50WUf-3nNNP-40" value="followeeId" style="endArrow=open;startArrow=none;endFill=0;startFill=0;endSize=8;html=1;verticalAlign=bottom;dashed=1;labelBackgroundColor=none;rounded=0;" edge="1" parent="YgAfKky1O50WUf-3nNNP-38">
          <mxGeometry width="160" relative="1" as="geometry">
            <mxPoint x="320" y="60" as="sourcePoint" />
            <mxPoint x="40" y="60" as="targetPoint" />
          </mxGeometry>
        </mxCell>
        <mxCell id="YgAfKky1O50WUf-3nNNP-42" value="ErrorResponse" style="endArrow=open;startArrow=none;endFill=0;startFill=0;endSize=8;html=1;verticalAlign=bottom;dashed=1;labelBackgroundColor=none;rounded=0;" edge="1" parent="YgAfKky1O50WUf-3nNNP-38">
          <mxGeometry width="160" relative="1" as="geometry">
            <mxPoint x="320" y="140" as="sourcePoint" />
            <mxPoint x="40" y="140" as="targetPoint" />
          </mxGeometry>
        </mxCell>
        <mxCell id="YgAfKky1O50WUf-3nNNP-39" value="success" style="text;html=1;align=center;verticalAlign=middle;resizable=0;points=[];autosize=1;strokeColor=none;fillColor=none;" vertex="1" parent="1">
          <mxGeometry x="435" y="588" width="70" height="30" as="geometry" />
        </mxCell>
        <mxCell id="YgAfKky1O50WUf-3nNNP-41" value="" style="endArrow=none;dashed=1;html=1;dashPattern=1 3;strokeWidth=2;rounded=0;exitX=0.006;exitY=0.556;exitDx=0;exitDy=0;exitPerimeter=0;entryX=1.003;entryY=0.556;entryDx=0;entryDy=0;entryPerimeter=0;" edge="1" parent="1" source="YgAfKky1O50WUf-3nNNP-38" target="YgAfKky1O50WUf-3nNNP-38">
          <mxGeometry width="50" height="50" relative="1" as="geometry">
            <mxPoint x="270" y="710" as="sourcePoint" />
            <mxPoint x="320" y="660" as="targetPoint" />
          </mxGeometry>
        </mxCell>
        <mxCell id="YgAfKky1O50WUf-3nNNP-44" value="failure" style="text;html=1;align=center;verticalAlign=middle;resizable=0;points=[];autosize=1;strokeColor=none;fillColor=none;" vertex="1" parent="1">
          <mxGeometry x="450" y="678" width="60" height="30" as="geometry" />
        </mxCell>
        <mxCell id="YgAfKky1O50WUf-3nNNP-45" value="Actor" style="shape=umlActor;verticalLabelPosition=bottom;verticalAlign=top;html=1;outlineConnect=0;" vertex="1" parent="1">
          <mxGeometry x="70" y="1380" width="30" height="60" as="geometry" />
        </mxCell>
        <mxCell id="YgAfKky1O50WUf-3nNNP-46" value="FollowRepository" style="rounded=0;whiteSpace=wrap;html=1;" vertex="1" parent="1">
          <mxGeometry x="240" y="1250" width="120" height="60" as="geometry" />
        </mxCell>
        <mxCell id="YgAfKky1O50WUf-3nNNP-47" value="" style="endArrow=none;dashed=1;html=1;dashPattern=1 3;strokeWidth=2;rounded=0;entryX=0.5;entryY=1;entryDx=0;entryDy=0;" edge="1" parent="1" target="YgAfKky1O50WUf-3nNNP-46">
          <mxGeometry width="50" height="50" relative="1" as="geometry">
            <mxPoint x="300" y="1860" as="sourcePoint" />
            <mxPoint x="290" y="1390" as="targetPoint" />
          </mxGeometry>
        </mxCell>
        <mxCell id="YgAfKky1O50WUf-3nNNP-48" value="" style="endArrow=classic;html=1;rounded=0;" edge="1" parent="1">
          <mxGeometry width="50" height="50" relative="1" as="geometry">
            <mxPoint x="110" y="1400" as="sourcePoint" />
            <mxPoint x="300" y="1400" as="targetPoint" />
          </mxGeometry>
        </mxCell>
        <mxCell id="YgAfKky1O50WUf-3nNNP-49" value="deleteFollower(followerId, followeeId)" style="text;html=1;align=center;verticalAlign=middle;resizable=0;points=[];autosize=1;strokeColor=none;fillColor=none;" vertex="1" parent="1">
          <mxGeometry x="90" y="1368" width="220" height="30" as="geometry" />
        </mxCell>
        <mxCell id="YgAfKky1O50WUf-3nNNP-50" value="PostgresBase" style="rounded=0;whiteSpace=wrap;html=1;" vertex="1" parent="1">
          <mxGeometry x="520" y="1250" width="120" height="60" as="geometry" />
        </mxCell>
        <mxCell id="YgAfKky1O50WUf-3nNNP-51" value="" style="endArrow=none;dashed=1;html=1;dashPattern=1 3;strokeWidth=2;rounded=0;entryX=0.5;entryY=1;entryDx=0;entryDy=0;" edge="1" parent="1" target="YgAfKky1O50WUf-3nNNP-50">
          <mxGeometry width="50" height="50" relative="1" as="geometry">
            <mxPoint x="580" y="1840" as="sourcePoint" />
            <mxPoint x="570" y="1340" as="targetPoint" />
          </mxGeometry>
        </mxCell>
        <mxCell id="YgAfKky1O50WUf-3nNNP-52" value="" style="endArrow=classic;html=1;rounded=0;exitX=0.981;exitY=0.933;exitDx=0;exitDy=0;exitPerimeter=0;" edge="1" parent="1" source="YgAfKky1O50WUf-3nNNP-49">
          <mxGeometry width="50" height="50" relative="1" as="geometry">
            <mxPoint x="370" y="1400" as="sourcePoint" />
            <mxPoint x="580" y="1390" as="targetPoint" />
            <Array as="points">
              <mxPoint x="580" y="1396" />
            </Array>
          </mxGeometry>
        </mxCell>
        <mxCell id="YgAfKky1O50WUf-3nNNP-53" value="getRepository(Follows)" style="text;html=1;align=center;verticalAlign=middle;resizable=0;points=[];autosize=1;strokeColor=none;fillColor=none;" vertex="1" parent="1">
          <mxGeometry x="365" y="1358" width="150" height="30" as="geometry" />
        </mxCell>
        <mxCell id="YgAfKky1O50WUf-3nNNP-54" value="DatabaseFactory" style="rounded=0;whiteSpace=wrap;html=1;" vertex="1" parent="1">
          <mxGeometry x="800" y="1250" width="120" height="60" as="geometry" />
        </mxCell>
        <mxCell id="YgAfKky1O50WUf-3nNNP-55" value="" style="endArrow=none;dashed=1;html=1;dashPattern=1 3;strokeWidth=2;rounded=0;" edge="1" parent="1">
          <mxGeometry width="50" height="50" relative="1" as="geometry">
            <mxPoint x="860" y="1830" as="sourcePoint" />
            <mxPoint x="860" y="1310" as="targetPoint" />
          </mxGeometry>
        </mxCell>
        <mxCell id="YgAfKky1O50WUf-3nNNP-56" value="" style="endArrow=classic;html=1;rounded=0;" edge="1" parent="1">
          <mxGeometry width="50" height="50" relative="1" as="geometry">
            <mxPoint x="580" y="1400" as="sourcePoint" />
            <mxPoint x="860" y="1410" as="targetPoint" />
          </mxGeometry>
        </mxCell>
        <mxCell id="YgAfKky1O50WUf-3nNNP-57" value="getConnection(dbType)" style="text;html=1;align=center;verticalAlign=middle;resizable=0;points=[];autosize=1;strokeColor=none;fillColor=none;" vertex="1" parent="1">
          <mxGeometry x="635" y="1368" width="150" height="30" as="geometry" />
        </mxCell>
        <mxCell id="YgAfKky1O50WUf-3nNNP-58" value="PostgresConnection" style="rounded=0;whiteSpace=wrap;html=1;" vertex="1" parent="1">
          <mxGeometry x="1060" y="1250" width="120" height="60" as="geometry" />
        </mxCell>
        <mxCell id="YgAfKky1O50WUf-3nNNP-59" value="" style="endArrow=none;dashed=1;html=1;dashPattern=1 3;strokeWidth=2;rounded=0;entryX=0.5;entryY=1;entryDx=0;entryDy=0;" edge="1" parent="1" target="YgAfKky1O50WUf-3nNNP-58">
          <mxGeometry width="50" height="50" relative="1" as="geometry">
            <mxPoint x="1120" y="1820" as="sourcePoint" />
            <mxPoint x="1120" y="1340" as="targetPoint" />
          </mxGeometry>
        </mxCell>
        <mxCell id="YgAfKky1O50WUf-3nNNP-60" value="" style="endArrow=classic;html=1;rounded=0;" edge="1" parent="1">
          <mxGeometry width="50" height="50" relative="1" as="geometry">
            <mxPoint x="860" y="1420" as="sourcePoint" />
            <mxPoint x="1120" y="1430" as="targetPoint" />
          </mxGeometry>
        </mxCell>
        <mxCell id="YgAfKky1O50WUf-3nNNP-61" value="instance" style="text;html=1;align=center;verticalAlign=middle;resizable=0;points=[];autosize=1;strokeColor=none;fillColor=none;" vertex="1" parent="1">
          <mxGeometry x="965" y="1388" width="70" height="30" as="geometry" />
        </mxCell>
        <mxCell id="YgAfKky1O50WUf-3nNNP-62" value="DatabaseConnection" style="rounded=0;whiteSpace=wrap;html=1;" vertex="1" parent="1">
          <mxGeometry x="1310" y="1250" width="120" height="60" as="geometry" />
        </mxCell>
        <mxCell id="YgAfKky1O50WUf-3nNNP-63" value="" style="endArrow=none;dashed=1;html=1;dashPattern=1 3;strokeWidth=2;rounded=0;" edge="1" parent="1">
          <mxGeometry width="50" height="50" relative="1" as="geometry">
            <mxPoint x="1370" y="1810" as="sourcePoint" />
            <mxPoint x="1370" y="1310" as="targetPoint" />
          </mxGeometry>
        </mxCell>
        <mxCell id="YgAfKky1O50WUf-3nNNP-64" value="" style="endArrow=classic;html=1;rounded=0;" edge="1" parent="1">
          <mxGeometry width="50" height="50" relative="1" as="geometry">
            <mxPoint x="1120" y="1440" as="sourcePoint" />
            <mxPoint x="1370" y="1450" as="targetPoint" />
          </mxGeometry>
        </mxCell>
        <mxCell id="YgAfKky1O50WUf-3nNNP-65" value="initialize()" style="text;html=1;align=center;verticalAlign=middle;resizable=0;points=[];autosize=1;strokeColor=none;fillColor=none;" vertex="1" parent="1">
          <mxGeometry x="1205" y="1408" width="70" height="30" as="geometry" />
        </mxCell>
        <mxCell id="YgAfKky1O50WUf-3nNNP-66" value="DataSource" style="rounded=0;whiteSpace=wrap;html=1;" vertex="1" parent="1">
          <mxGeometry x="1578" y="1250" width="120" height="60" as="geometry" />
        </mxCell>
        <mxCell id="YgAfKky1O50WUf-3nNNP-67" value="" style="endArrow=none;dashed=1;html=1;dashPattern=1 3;strokeWidth=2;rounded=0;" edge="1" parent="1">
          <mxGeometry width="50" height="50" relative="1" as="geometry">
            <mxPoint x="1640" y="1860" as="sourcePoint" />
            <mxPoint x="1640" y="1310" as="targetPoint" />
          </mxGeometry>
        </mxCell>
        <mxCell id="YgAfKky1O50WUf-3nNNP-68" value="" style="endArrow=classic;html=1;rounded=0;" edge="1" parent="1">
          <mxGeometry width="50" height="50" relative="1" as="geometry">
            <mxPoint x="1370" y="1450" as="sourcePoint" />
            <mxPoint x="1640" y="1470" as="targetPoint" />
          </mxGeometry>
        </mxCell>
        <mxCell id="YgAfKky1O50WUf-3nNNP-69" value="initialize()" style="text;html=1;align=center;verticalAlign=middle;resizable=0;points=[];autosize=1;strokeColor=none;fillColor=none;" vertex="1" parent="1">
          <mxGeometry x="1455" y="1418" width="70" height="30" as="geometry" />
        </mxCell>
        <mxCell id="YgAfKky1O50WUf-3nNNP-70" value="poolManager" style="endArrow=open;startArrow=none;endFill=0;startFill=0;endSize=8;html=1;verticalAlign=bottom;dashed=1;labelBackgroundColor=none;rounded=0;" edge="1" parent="1">
          <mxGeometry width="160" relative="1" as="geometry">
            <mxPoint x="1640" y="1530" as="sourcePoint" />
            <mxPoint x="1370" y="1540" as="targetPoint" />
          </mxGeometry>
        </mxCell>
        <mxCell id="YgAfKky1O50WUf-3nNNP-71" value="connection" style="endArrow=open;startArrow=none;endFill=0;startFill=0;endSize=8;html=1;verticalAlign=bottom;dashed=1;labelBackgroundColor=none;rounded=0;" edge="1" parent="1">
          <mxGeometry width="160" relative="1" as="geometry">
            <mxPoint x="1370" y="1550" as="sourcePoint" />
            <mxPoint x="1120" y="1570" as="targetPoint" />
          </mxGeometry>
        </mxCell>
        <mxCell id="YgAfKky1O50WUf-3nNNP-72" value="connection" style="endArrow=open;startArrow=none;endFill=0;startFill=0;endSize=8;html=1;verticalAlign=bottom;dashed=1;labelBackgroundColor=none;rounded=0;" edge="1" parent="1">
          <mxGeometry width="160" relative="1" as="geometry">
            <mxPoint x="1120" y="1570" as="sourcePoint" />
            <mxPoint x="860" y="1600" as="targetPoint" />
          </mxGeometry>
        </mxCell>
        <mxCell id="YgAfKky1O50WUf-3nNNP-73" value="repository" style="endArrow=open;startArrow=none;endFill=0;startFill=0;endSize=8;html=1;verticalAlign=bottom;dashed=1;labelBackgroundColor=none;rounded=0;" edge="1" parent="1">
          <mxGeometry width="160" relative="1" as="geometry">
            <mxPoint x="860" y="1610" as="sourcePoint" />
            <mxPoint x="580" y="1630" as="targetPoint" />
          </mxGeometry>
        </mxCell>
        <mxCell id="YgAfKky1O50WUf-3nNNP-74" value="" style="endArrow=classic;html=1;rounded=0;" edge="1" parent="1">
          <mxGeometry width="50" height="50" relative="1" as="geometry">
            <mxPoint x="580" y="1660" as="sourcePoint" />
            <mxPoint x="580" y="1710" as="targetPoint" />
            <Array as="points">
              <mxPoint x="620" y="1660" />
              <mxPoint x="620" y="1710" />
            </Array>
          </mxGeometry>
        </mxCell>
        <mxCell id="YgAfKky1O50WUf-3nNNP-75" value="repository.delete(followerId, followeeId)" style="text;html=1;align=center;verticalAlign=middle;resizable=0;points=[];autosize=1;strokeColor=none;fillColor=none;" vertex="1" parent="1">
          <mxGeometry x="610" y="1658" width="230" height="30" as="geometry" />
        </mxCell>
        <mxCell id="YgAfKky1O50WUf-3nNNP-164" value="Actor" style="shape=umlActor;verticalLabelPosition=bottom;verticalAlign=top;html=1;outlineConnect=0;" vertex="1" parent="1">
          <mxGeometry x="10" y="2068" width="30" height="60" as="geometry" />
        </mxCell>
        <mxCell id="YgAfKky1O50WUf-3nNNP-165" value="FollowRepository" style="rounded=0;whiteSpace=wrap;html=1;" vertex="1" parent="1">
          <mxGeometry x="210" y="1940" width="120" height="60" as="geometry" />
        </mxCell>
        <mxCell id="YgAfKky1O50WUf-3nNNP-166" value="" style="endArrow=classic;html=1;rounded=0;" edge="1" parent="1">
          <mxGeometry width="50" height="50" relative="1" as="geometry">
            <mxPoint x="80" y="2090" as="sourcePoint" />
            <mxPoint x="270" y="2090" as="targetPoint" />
          </mxGeometry>
        </mxCell>
        <mxCell id="YgAfKky1O50WUf-3nNNP-167" value="getFollowersByFolloweeId(followerId, followeeId)" style="text;html=1;align=center;verticalAlign=middle;resizable=0;points=[];autosize=1;strokeColor=none;fillColor=none;" vertex="1" parent="1">
          <mxGeometry x="55" y="2058" width="280" height="30" as="geometry" />
        </mxCell>
        <mxCell id="YgAfKky1O50WUf-3nNNP-168" value="PostgresBase" style="rounded=0;whiteSpace=wrap;html=1;" vertex="1" parent="1">
          <mxGeometry x="490" y="1940" width="120" height="60" as="geometry" />
        </mxCell>
        <mxCell id="YgAfKky1O50WUf-3nNNP-169" value="" style="endArrow=none;dashed=1;html=1;dashPattern=1 3;strokeWidth=2;rounded=0;entryX=0.5;entryY=1;entryDx=0;entryDy=0;" edge="1" parent="1" target="YgAfKky1O50WUf-3nNNP-168">
          <mxGeometry width="50" height="50" relative="1" as="geometry">
            <mxPoint x="550" y="2800" as="sourcePoint" />
            <mxPoint x="540" y="2030" as="targetPoint" />
          </mxGeometry>
        </mxCell>
        <mxCell id="YgAfKky1O50WUf-3nNNP-170" value="" style="endArrow=classic;html=1;rounded=0;exitX=0.981;exitY=0.933;exitDx=0;exitDy=0;exitPerimeter=0;" edge="1" parent="1" source="YgAfKky1O50WUf-3nNNP-167">
          <mxGeometry width="50" height="50" relative="1" as="geometry">
            <mxPoint x="340" y="2090" as="sourcePoint" />
            <mxPoint x="550" y="2080" as="targetPoint" />
            <Array as="points">
              <mxPoint x="550" y="2086" />
            </Array>
          </mxGeometry>
        </mxCell>
        <mxCell id="YgAfKky1O50WUf-3nNNP-171" value="getRepository(Follows)" style="text;html=1;align=center;verticalAlign=middle;resizable=0;points=[];autosize=1;strokeColor=none;fillColor=none;" vertex="1" parent="1">
          <mxGeometry x="335" y="2048" width="150" height="30" as="geometry" />
        </mxCell>
        <mxCell id="YgAfKky1O50WUf-3nNNP-172" value="DatabaseFactory" style="rounded=0;whiteSpace=wrap;html=1;" vertex="1" parent="1">
          <mxGeometry x="770" y="1940" width="120" height="60" as="geometry" />
        </mxCell>
        <mxCell id="YgAfKky1O50WUf-3nNNP-173" value="" style="endArrow=none;dashed=1;html=1;dashPattern=1 3;strokeWidth=2;rounded=0;" edge="1" parent="1">
          <mxGeometry width="50" height="50" relative="1" as="geometry">
            <mxPoint x="830" y="2770" as="sourcePoint" />
            <mxPoint x="830" y="2000" as="targetPoint" />
          </mxGeometry>
        </mxCell>
        <mxCell id="YgAfKky1O50WUf-3nNNP-174" value="" style="endArrow=classic;html=1;rounded=0;" edge="1" parent="1">
          <mxGeometry width="50" height="50" relative="1" as="geometry">
            <mxPoint x="550" y="2090" as="sourcePoint" />
            <mxPoint x="830" y="2100" as="targetPoint" />
          </mxGeometry>
        </mxCell>
        <mxCell id="YgAfKky1O50WUf-3nNNP-175" value="getConnection(dbType)" style="text;html=1;align=center;verticalAlign=middle;resizable=0;points=[];autosize=1;strokeColor=none;fillColor=none;" vertex="1" parent="1">
          <mxGeometry x="605" y="2058" width="150" height="30" as="geometry" />
        </mxCell>
        <mxCell id="YgAfKky1O50WUf-3nNNP-176" value="PostgresConnection" style="rounded=0;whiteSpace=wrap;html=1;" vertex="1" parent="1">
          <mxGeometry x="1030" y="1940" width="120" height="60" as="geometry" />
        </mxCell>
        <mxCell id="YgAfKky1O50WUf-3nNNP-177" value="" style="endArrow=none;dashed=1;html=1;dashPattern=1 3;strokeWidth=2;rounded=0;entryX=0.5;entryY=1;entryDx=0;entryDy=0;" edge="1" parent="1" target="YgAfKky1O50WUf-3nNNP-176">
          <mxGeometry width="50" height="50" relative="1" as="geometry">
            <mxPoint x="1090" y="2780" as="sourcePoint" />
            <mxPoint x="1090" y="2030" as="targetPoint" />
          </mxGeometry>
        </mxCell>
        <mxCell id="YgAfKky1O50WUf-3nNNP-178" value="" style="endArrow=classic;html=1;rounded=0;" edge="1" parent="1">
          <mxGeometry width="50" height="50" relative="1" as="geometry">
            <mxPoint x="830" y="2110" as="sourcePoint" />
            <mxPoint x="1090" y="2120" as="targetPoint" />
          </mxGeometry>
        </mxCell>
        <mxCell id="YgAfKky1O50WUf-3nNNP-179" value="instance" style="text;html=1;align=center;verticalAlign=middle;resizable=0;points=[];autosize=1;strokeColor=none;fillColor=none;" vertex="1" parent="1">
          <mxGeometry x="935" y="2078" width="70" height="30" as="geometry" />
        </mxCell>
        <mxCell id="YgAfKky1O50WUf-3nNNP-180" value="DatabaseConnection" style="rounded=0;whiteSpace=wrap;html=1;" vertex="1" parent="1">
          <mxGeometry x="1280" y="1940" width="120" height="60" as="geometry" />
        </mxCell>
        <mxCell id="YgAfKky1O50WUf-3nNNP-181" value="" style="endArrow=none;dashed=1;html=1;dashPattern=1 3;strokeWidth=2;rounded=0;" edge="1" parent="1">
          <mxGeometry width="50" height="50" relative="1" as="geometry">
            <mxPoint x="1340" y="2750" as="sourcePoint" />
            <mxPoint x="1340" y="2000" as="targetPoint" />
          </mxGeometry>
        </mxCell>
        <mxCell id="YgAfKky1O50WUf-3nNNP-182" value="" style="endArrow=classic;html=1;rounded=0;" edge="1" parent="1">
          <mxGeometry width="50" height="50" relative="1" as="geometry">
            <mxPoint x="1090" y="2130" as="sourcePoint" />
            <mxPoint x="1340" y="2140" as="targetPoint" />
          </mxGeometry>
        </mxCell>
        <mxCell id="YgAfKky1O50WUf-3nNNP-183" value="initialize()" style="text;html=1;align=center;verticalAlign=middle;resizable=0;points=[];autosize=1;strokeColor=none;fillColor=none;" vertex="1" parent="1">
          <mxGeometry x="1175" y="2098" width="70" height="30" as="geometry" />
        </mxCell>
        <mxCell id="YgAfKky1O50WUf-3nNNP-184" value="DataSource" style="rounded=0;whiteSpace=wrap;html=1;" vertex="1" parent="1">
          <mxGeometry x="1548" y="1940" width="120" height="60" as="geometry" />
        </mxCell>
        <mxCell id="YgAfKky1O50WUf-3nNNP-185" value="" style="endArrow=none;dashed=1;html=1;dashPattern=1 3;strokeWidth=2;rounded=0;" edge="1" parent="1">
          <mxGeometry width="50" height="50" relative="1" as="geometry">
            <mxPoint x="1610" y="2740" as="sourcePoint" />
            <mxPoint x="1610" y="2000" as="targetPoint" />
          </mxGeometry>
        </mxCell>
        <mxCell id="YgAfKky1O50WUf-3nNNP-186" value="" style="endArrow=classic;html=1;rounded=0;" edge="1" parent="1">
          <mxGeometry width="50" height="50" relative="1" as="geometry">
            <mxPoint x="1340" y="2140" as="sourcePoint" />
            <mxPoint x="1610" y="2160" as="targetPoint" />
          </mxGeometry>
        </mxCell>
        <mxCell id="YgAfKky1O50WUf-3nNNP-187" value="initialize()" style="text;html=1;align=center;verticalAlign=middle;resizable=0;points=[];autosize=1;strokeColor=none;fillColor=none;" vertex="1" parent="1">
          <mxGeometry x="1425" y="2108" width="70" height="30" as="geometry" />
        </mxCell>
        <mxCell id="YgAfKky1O50WUf-3nNNP-188" value="poolManager" style="endArrow=open;startArrow=none;endFill=0;startFill=0;endSize=8;html=1;verticalAlign=bottom;dashed=1;labelBackgroundColor=none;rounded=0;" edge="1" parent="1">
          <mxGeometry width="160" relative="1" as="geometry">
            <mxPoint x="1610" y="2220" as="sourcePoint" />
            <mxPoint x="1340" y="2230" as="targetPoint" />
          </mxGeometry>
        </mxCell>
        <mxCell id="YgAfKky1O50WUf-3nNNP-189" value="connection" style="endArrow=open;startArrow=none;endFill=0;startFill=0;endSize=8;html=1;verticalAlign=bottom;dashed=1;labelBackgroundColor=none;rounded=0;" edge="1" parent="1">
          <mxGeometry width="160" relative="1" as="geometry">
            <mxPoint x="1340" y="2240" as="sourcePoint" />
            <mxPoint x="1090" y="2260" as="targetPoint" />
          </mxGeometry>
        </mxCell>
        <mxCell id="YgAfKky1O50WUf-3nNNP-190" value="connection" style="endArrow=open;startArrow=none;endFill=0;startFill=0;endSize=8;html=1;verticalAlign=bottom;dashed=1;labelBackgroundColor=none;rounded=0;" edge="1" parent="1">
          <mxGeometry width="160" relative="1" as="geometry">
            <mxPoint x="1090" y="2260" as="sourcePoint" />
            <mxPoint x="830" y="2290" as="targetPoint" />
          </mxGeometry>
        </mxCell>
        <mxCell id="YgAfKky1O50WUf-3nNNP-191" value="repository" style="endArrow=open;startArrow=none;endFill=0;startFill=0;endSize=8;html=1;verticalAlign=bottom;dashed=1;labelBackgroundColor=none;rounded=0;" edge="1" parent="1">
          <mxGeometry width="160" relative="1" as="geometry">
            <mxPoint x="830" y="2300" as="sourcePoint" />
            <mxPoint x="550" y="2320" as="targetPoint" />
          </mxGeometry>
        </mxCell>
        <mxCell id="YgAfKky1O50WUf-3nNNP-192" value="" style="endArrow=classic;html=1;rounded=0;" edge="1" parent="1">
          <mxGeometry width="50" height="50" relative="1" as="geometry">
            <mxPoint x="550" y="2350" as="sourcePoint" />
            <mxPoint x="550" y="2400" as="targetPoint" />
            <Array as="points">
              <mxPoint x="590" y="2350" />
              <mxPoint x="590" y="2400" />
            </Array>
          </mxGeometry>
        </mxCell>
        <mxCell id="YgAfKky1O50WUf-3nNNP-193" value="repository.find()" style="text;html=1;align=center;verticalAlign=middle;resizable=0;points=[];autosize=1;strokeColor=none;fillColor=none;" vertex="1" parent="1">
          <mxGeometry x="585" y="2348" width="110" height="30" as="geometry" />
        </mxCell>
        <mxCell id="YgAfKky1O50WUf-3nNNP-196" value="alt" style="shape=umlFrame;whiteSpace=wrap;html=1;pointerEvents=0;recursiveResize=0;container=1;collapsible=0;width=160;" vertex="1" parent="1">
          <mxGeometry x="230" y="2490" width="340" height="180" as="geometry" />
        </mxCell>
        <mxCell id="YgAfKky1O50WUf-3nNNP-197" value="Users[]" style="endArrow=open;startArrow=none;endFill=0;startFill=0;endSize=8;html=1;verticalAlign=bottom;dashed=1;labelBackgroundColor=none;rounded=0;" edge="1" parent="YgAfKky1O50WUf-3nNNP-196">
          <mxGeometry width="160" relative="1" as="geometry">
            <mxPoint x="320" y="60" as="sourcePoint" />
            <mxPoint x="40" y="60" as="targetPoint" />
          </mxGeometry>
        </mxCell>
        <mxCell id="YgAfKky1O50WUf-3nNNP-198" value="ErrorResponse" style="endArrow=open;startArrow=none;endFill=0;startFill=0;endSize=8;html=1;verticalAlign=bottom;dashed=1;labelBackgroundColor=none;rounded=0;" edge="1" parent="YgAfKky1O50WUf-3nNNP-196">
          <mxGeometry width="160" relative="1" as="geometry">
            <mxPoint x="320" y="140" as="sourcePoint" />
            <mxPoint x="40" y="140" as="targetPoint" />
          </mxGeometry>
        </mxCell>
        <mxCell id="YgAfKky1O50WUf-3nNNP-199" value="success" style="text;html=1;align=center;verticalAlign=middle;resizable=0;points=[];autosize=1;strokeColor=none;fillColor=none;" vertex="1" parent="1">
          <mxGeometry x="455" y="2498" width="70" height="30" as="geometry" />
        </mxCell>
        <mxCell id="YgAfKky1O50WUf-3nNNP-200" value="" style="endArrow=none;dashed=1;html=1;dashPattern=1 3;strokeWidth=2;rounded=0;exitX=0.006;exitY=0.556;exitDx=0;exitDy=0;exitPerimeter=0;entryX=1.003;entryY=0.556;entryDx=0;entryDy=0;entryPerimeter=0;" edge="1" parent="1" source="YgAfKky1O50WUf-3nNNP-196" target="YgAfKky1O50WUf-3nNNP-196">
          <mxGeometry width="50" height="50" relative="1" as="geometry">
            <mxPoint x="290" y="2620" as="sourcePoint" />
            <mxPoint x="340" y="2570" as="targetPoint" />
          </mxGeometry>
        </mxCell>
        <mxCell id="YgAfKky1O50WUf-3nNNP-201" value="failure" style="text;html=1;align=center;verticalAlign=middle;resizable=0;points=[];autosize=1;strokeColor=none;fillColor=none;" vertex="1" parent="1">
          <mxGeometry x="470" y="2588" width="60" height="30" as="geometry" />
        </mxCell>
        <mxCell id="YgAfKky1O50WUf-3nNNP-202" value="" style="endArrow=none;dashed=1;html=1;dashPattern=1 3;strokeWidth=2;rounded=0;" edge="1" parent="1">
          <mxGeometry width="50" height="50" relative="1" as="geometry">
            <mxPoint x="270" y="2811.4285714285716" as="sourcePoint" />
            <mxPoint x="270" y="2000" as="targetPoint" />
          </mxGeometry>
        </mxCell>
        <mxCell id="YgAfKky1O50WUf-3nNNP-203" value="Actor" style="shape=umlActor;verticalLabelPosition=bottom;verticalAlign=top;html=1;outlineConnect=0;" vertex="1" parent="1">
          <mxGeometry x="10" y="3038" width="30" height="60" as="geometry" />
        </mxCell>
        <mxCell id="YgAfKky1O50WUf-3nNNP-204" value="FollowRepository" style="rounded=0;whiteSpace=wrap;html=1;" vertex="1" parent="1">
          <mxGeometry x="210" y="2910" width="120" height="60" as="geometry" />
        </mxCell>
        <mxCell id="YgAfKky1O50WUf-3nNNP-205" value="" style="endArrow=classic;html=1;rounded=0;" edge="1" parent="1">
          <mxGeometry width="50" height="50" relative="1" as="geometry">
            <mxPoint x="80" y="3060" as="sourcePoint" />
            <mxPoint x="270" y="3060" as="targetPoint" />
          </mxGeometry>
        </mxCell>
        <mxCell id="YgAfKky1O50WUf-3nNNP-206" value="getFolloweesByFollowerId(followerId, followeeId)" style="text;html=1;align=center;verticalAlign=middle;resizable=0;points=[];autosize=1;strokeColor=none;fillColor=none;" vertex="1" parent="1">
          <mxGeometry x="55" y="3028" width="280" height="30" as="geometry" />
        </mxCell>
        <mxCell id="YgAfKky1O50WUf-3nNNP-207" value="PostgresBase" style="rounded=0;whiteSpace=wrap;html=1;" vertex="1" parent="1">
          <mxGeometry x="490" y="2910" width="120" height="60" as="geometry" />
        </mxCell>
        <mxCell id="YgAfKky1O50WUf-3nNNP-208" value="" style="endArrow=none;dashed=1;html=1;dashPattern=1 3;strokeWidth=2;rounded=0;entryX=0.5;entryY=1;entryDx=0;entryDy=0;" edge="1" parent="1" target="YgAfKky1O50WUf-3nNNP-207">
          <mxGeometry width="50" height="50" relative="1" as="geometry">
            <mxPoint x="550" y="3770" as="sourcePoint" />
            <mxPoint x="540" y="3000" as="targetPoint" />
          </mxGeometry>
        </mxCell>
        <mxCell id="YgAfKky1O50WUf-3nNNP-209" value="" style="endArrow=classic;html=1;rounded=0;exitX=0.981;exitY=0.933;exitDx=0;exitDy=0;exitPerimeter=0;" edge="1" parent="1" source="YgAfKky1O50WUf-3nNNP-206">
          <mxGeometry width="50" height="50" relative="1" as="geometry">
            <mxPoint x="340" y="3060" as="sourcePoint" />
            <mxPoint x="550" y="3050" as="targetPoint" />
            <Array as="points">
              <mxPoint x="550" y="3056" />
            </Array>
          </mxGeometry>
        </mxCell>
        <mxCell id="YgAfKky1O50WUf-3nNNP-210" value="getRepository(Follows)" style="text;html=1;align=center;verticalAlign=middle;resizable=0;points=[];autosize=1;strokeColor=none;fillColor=none;" vertex="1" parent="1">
          <mxGeometry x="335" y="3018" width="150" height="30" as="geometry" />
        </mxCell>
        <mxCell id="YgAfKky1O50WUf-3nNNP-211" value="DatabaseFactory" style="rounded=0;whiteSpace=wrap;html=1;" vertex="1" parent="1">
          <mxGeometry x="770" y="2910" width="120" height="60" as="geometry" />
        </mxCell>
        <mxCell id="YgAfKky1O50WUf-3nNNP-212" value="" style="endArrow=none;dashed=1;html=1;dashPattern=1 3;strokeWidth=2;rounded=0;" edge="1" parent="1">
          <mxGeometry width="50" height="50" relative="1" as="geometry">
            <mxPoint x="830" y="3740" as="sourcePoint" />
            <mxPoint x="830" y="2970" as="targetPoint" />
          </mxGeometry>
        </mxCell>
        <mxCell id="YgAfKky1O50WUf-3nNNP-213" value="" style="endArrow=classic;html=1;rounded=0;" edge="1" parent="1">
          <mxGeometry width="50" height="50" relative="1" as="geometry">
            <mxPoint x="550" y="3060" as="sourcePoint" />
            <mxPoint x="830" y="3070" as="targetPoint" />
          </mxGeometry>
        </mxCell>
        <mxCell id="YgAfKky1O50WUf-3nNNP-214" value="getConnection(dbType)" style="text;html=1;align=center;verticalAlign=middle;resizable=0;points=[];autosize=1;strokeColor=none;fillColor=none;" vertex="1" parent="1">
          <mxGeometry x="605" y="3028" width="150" height="30" as="geometry" />
        </mxCell>
        <mxCell id="YgAfKky1O50WUf-3nNNP-215" value="PostgresConnection" style="rounded=0;whiteSpace=wrap;html=1;" vertex="1" parent="1">
          <mxGeometry x="1030" y="2910" width="120" height="60" as="geometry" />
        </mxCell>
        <mxCell id="YgAfKky1O50WUf-3nNNP-216" value="" style="endArrow=none;dashed=1;html=1;dashPattern=1 3;strokeWidth=2;rounded=0;entryX=0.5;entryY=1;entryDx=0;entryDy=0;" edge="1" parent="1" target="YgAfKky1O50WUf-3nNNP-215">
          <mxGeometry width="50" height="50" relative="1" as="geometry">
            <mxPoint x="1090" y="3750" as="sourcePoint" />
            <mxPoint x="1090" y="3000" as="targetPoint" />
          </mxGeometry>
        </mxCell>
        <mxCell id="YgAfKky1O50WUf-3nNNP-217" value="" style="endArrow=classic;html=1;rounded=0;" edge="1" parent="1">
          <mxGeometry width="50" height="50" relative="1" as="geometry">
            <mxPoint x="830" y="3080" as="sourcePoint" />
            <mxPoint x="1090" y="3090" as="targetPoint" />
          </mxGeometry>
        </mxCell>
        <mxCell id="YgAfKky1O50WUf-3nNNP-218" value="instance" style="text;html=1;align=center;verticalAlign=middle;resizable=0;points=[];autosize=1;strokeColor=none;fillColor=none;" vertex="1" parent="1">
          <mxGeometry x="935" y="3048" width="70" height="30" as="geometry" />
        </mxCell>
        <mxCell id="YgAfKky1O50WUf-3nNNP-219" value="DatabaseConnection" style="rounded=0;whiteSpace=wrap;html=1;" vertex="1" parent="1">
          <mxGeometry x="1280" y="2910" width="120" height="60" as="geometry" />
        </mxCell>
        <mxCell id="YgAfKky1O50WUf-3nNNP-220" value="" style="endArrow=none;dashed=1;html=1;dashPattern=1 3;strokeWidth=2;rounded=0;" edge="1" parent="1">
          <mxGeometry width="50" height="50" relative="1" as="geometry">
            <mxPoint x="1340" y="3720" as="sourcePoint" />
            <mxPoint x="1340" y="2970" as="targetPoint" />
          </mxGeometry>
        </mxCell>
        <mxCell id="YgAfKky1O50WUf-3nNNP-221" value="" style="endArrow=classic;html=1;rounded=0;" edge="1" parent="1">
          <mxGeometry width="50" height="50" relative="1" as="geometry">
            <mxPoint x="1090" y="3100" as="sourcePoint" />
            <mxPoint x="1340" y="3110" as="targetPoint" />
          </mxGeometry>
        </mxCell>
        <mxCell id="YgAfKky1O50WUf-3nNNP-222" value="initialize()" style="text;html=1;align=center;verticalAlign=middle;resizable=0;points=[];autosize=1;strokeColor=none;fillColor=none;" vertex="1" parent="1">
          <mxGeometry x="1175" y="3068" width="70" height="30" as="geometry" />
        </mxCell>
        <mxCell id="YgAfKky1O50WUf-3nNNP-223" value="DataSource" style="rounded=0;whiteSpace=wrap;html=1;" vertex="1" parent="1">
          <mxGeometry x="1548" y="2910" width="120" height="60" as="geometry" />
        </mxCell>
        <mxCell id="YgAfKky1O50WUf-3nNNP-224" value="" style="endArrow=none;dashed=1;html=1;dashPattern=1 3;strokeWidth=2;rounded=0;" edge="1" parent="1">
          <mxGeometry width="50" height="50" relative="1" as="geometry">
            <mxPoint x="1610" y="3710" as="sourcePoint" />
            <mxPoint x="1610" y="2970" as="targetPoint" />
          </mxGeometry>
        </mxCell>
        <mxCell id="YgAfKky1O50WUf-3nNNP-225" value="" style="endArrow=classic;html=1;rounded=0;" edge="1" parent="1">
          <mxGeometry width="50" height="50" relative="1" as="geometry">
            <mxPoint x="1340" y="3110" as="sourcePoint" />
            <mxPoint x="1610" y="3130" as="targetPoint" />
          </mxGeometry>
        </mxCell>
        <mxCell id="YgAfKky1O50WUf-3nNNP-226" value="initialize()" style="text;html=1;align=center;verticalAlign=middle;resizable=0;points=[];autosize=1;strokeColor=none;fillColor=none;" vertex="1" parent="1">
          <mxGeometry x="1425" y="3078" width="70" height="30" as="geometry" />
        </mxCell>
        <mxCell id="YgAfKky1O50WUf-3nNNP-227" value="poolManager" style="endArrow=open;startArrow=none;endFill=0;startFill=0;endSize=8;html=1;verticalAlign=bottom;dashed=1;labelBackgroundColor=none;rounded=0;" edge="1" parent="1">
          <mxGeometry width="160" relative="1" as="geometry">
            <mxPoint x="1610" y="3190" as="sourcePoint" />
            <mxPoint x="1340" y="3200" as="targetPoint" />
          </mxGeometry>
        </mxCell>
        <mxCell id="YgAfKky1O50WUf-3nNNP-228" value="connection" style="endArrow=open;startArrow=none;endFill=0;startFill=0;endSize=8;html=1;verticalAlign=bottom;dashed=1;labelBackgroundColor=none;rounded=0;" edge="1" parent="1">
          <mxGeometry width="160" relative="1" as="geometry">
            <mxPoint x="1340" y="3210" as="sourcePoint" />
            <mxPoint x="1090" y="3230" as="targetPoint" />
          </mxGeometry>
        </mxCell>
        <mxCell id="YgAfKky1O50WUf-3nNNP-229" value="connection" style="endArrow=open;startArrow=none;endFill=0;startFill=0;endSize=8;html=1;verticalAlign=bottom;dashed=1;labelBackgroundColor=none;rounded=0;" edge="1" parent="1">
          <mxGeometry width="160" relative="1" as="geometry">
            <mxPoint x="1090" y="3230" as="sourcePoint" />
            <mxPoint x="830" y="3260" as="targetPoint" />
          </mxGeometry>
        </mxCell>
        <mxCell id="YgAfKky1O50WUf-3nNNP-230" value="repository" style="endArrow=open;startArrow=none;endFill=0;startFill=0;endSize=8;html=1;verticalAlign=bottom;dashed=1;labelBackgroundColor=none;rounded=0;" edge="1" parent="1">
          <mxGeometry width="160" relative="1" as="geometry">
            <mxPoint x="830" y="3270" as="sourcePoint" />
            <mxPoint x="550" y="3290" as="targetPoint" />
          </mxGeometry>
        </mxCell>
        <mxCell id="YgAfKky1O50WUf-3nNNP-231" value="" style="endArrow=classic;html=1;rounded=0;" edge="1" parent="1">
          <mxGeometry width="50" height="50" relative="1" as="geometry">
            <mxPoint x="550" y="3320" as="sourcePoint" />
            <mxPoint x="550" y="3370" as="targetPoint" />
            <Array as="points">
              <mxPoint x="590" y="3320" />
              <mxPoint x="590" y="3370" />
            </Array>
          </mxGeometry>
        </mxCell>
        <mxCell id="YgAfKky1O50WUf-3nNNP-232" value="repository.find()" style="text;html=1;align=center;verticalAlign=middle;resizable=0;points=[];autosize=1;strokeColor=none;fillColor=none;" vertex="1" parent="1">
          <mxGeometry x="585" y="3318" width="110" height="30" as="geometry" />
        </mxCell>
        <mxCell id="YgAfKky1O50WUf-3nNNP-233" value="alt" style="shape=umlFrame;whiteSpace=wrap;html=1;pointerEvents=0;recursiveResize=0;container=1;collapsible=0;width=160;" vertex="1" parent="1">
          <mxGeometry x="230" y="3460" width="340" height="180" as="geometry" />
        </mxCell>
        <mxCell id="YgAfKky1O50WUf-3nNNP-234" value="Users[]" style="endArrow=open;startArrow=none;endFill=0;startFill=0;endSize=8;html=1;verticalAlign=bottom;dashed=1;labelBackgroundColor=none;rounded=0;" edge="1" parent="YgAfKky1O50WUf-3nNNP-233">
          <mxGeometry width="160" relative="1" as="geometry">
            <mxPoint x="320" y="60" as="sourcePoint" />
            <mxPoint x="40" y="60" as="targetPoint" />
          </mxGeometry>
        </mxCell>
        <mxCell id="YgAfKky1O50WUf-3nNNP-235" value="ErrorResponse" style="endArrow=open;startArrow=none;endFill=0;startFill=0;endSize=8;html=1;verticalAlign=bottom;dashed=1;labelBackgroundColor=none;rounded=0;" edge="1" parent="YgAfKky1O50WUf-3nNNP-233">
          <mxGeometry width="160" relative="1" as="geometry">
            <mxPoint x="320" y="140" as="sourcePoint" />
            <mxPoint x="40" y="140" as="targetPoint" />
          </mxGeometry>
        </mxCell>
        <mxCell id="YgAfKky1O50WUf-3nNNP-236" value="success" style="text;html=1;align=center;verticalAlign=middle;resizable=0;points=[];autosize=1;strokeColor=none;fillColor=none;" vertex="1" parent="1">
          <mxGeometry x="455" y="3468" width="70" height="30" as="geometry" />
        </mxCell>
        <mxCell id="YgAfKky1O50WUf-3nNNP-237" value="" style="endArrow=none;dashed=1;html=1;dashPattern=1 3;strokeWidth=2;rounded=0;exitX=0.006;exitY=0.556;exitDx=0;exitDy=0;exitPerimeter=0;entryX=1.003;entryY=0.556;entryDx=0;entryDy=0;entryPerimeter=0;" edge="1" parent="1" source="YgAfKky1O50WUf-3nNNP-233" target="YgAfKky1O50WUf-3nNNP-233">
          <mxGeometry width="50" height="50" relative="1" as="geometry">
            <mxPoint x="290" y="3590" as="sourcePoint" />
            <mxPoint x="340" y="3540" as="targetPoint" />
          </mxGeometry>
        </mxCell>
        <mxCell id="YgAfKky1O50WUf-3nNNP-238" value="failure" style="text;html=1;align=center;verticalAlign=middle;resizable=0;points=[];autosize=1;strokeColor=none;fillColor=none;" vertex="1" parent="1">
          <mxGeometry x="470" y="3558" width="60" height="30" as="geometry" />
        </mxCell>
        <mxCell id="YgAfKky1O50WUf-3nNNP-239" value="" style="endArrow=none;dashed=1;html=1;dashPattern=1 3;strokeWidth=2;rounded=0;" edge="1" parent="1">
          <mxGeometry width="50" height="50" relative="1" as="geometry">
            <mxPoint x="270" y="3781.4285714285716" as="sourcePoint" />
            <mxPoint x="270" y="2970" as="targetPoint" />
          </mxGeometry>
        </mxCell>
      </root>
    </mxGraphModel>
  </diagram>
</mxfile>
